<?xml version="1.0" standalone="no"?>
<!DOCTYPE svg PUBLIC "-//W3C//DTD SVG 20010904//EN"
 "http://www.w3.org/TR/2001/REC-SVG-20010904/DTD/svg10.dtd">
<svg version="1.0" xmlns="http://www.w3.org/2000/svg"
 width="1080.000000pt" height="1080.000000pt" viewBox="0 0 1080.000000 1080.000000"
 preserveAspectRatio="xMidYMid meet">
<metadata>
Created by potrace 1.14, written by Peter Selinger 2001-2017
</metadata>
<g transform="translate(0.000000,1080.000000) scale(0.100000,-0.100000)"
fill="#000000" stroke="none">
<path d="M6583 9212 c1266 -1267 1587 -1592 1587 -1612 0 -74 -53 -202 -131
-318 -56 -83 -321 -350 -2890 -2902 -1353 -1344 -1381 -1371 -1524 -1443 -232
-116 -440 -56 -630 183 -221 279 -231 508 -32 737 34 39 656 648 1382 1353
1639 1593 1702 1655 1710 1691 9 39 -11 94 -42 119 -29 23 -95 26 -129 7 -39
-21 -3098 -3005 -3142 -3064 -55 -73 -117 -200 -139 -283 -21 -85 -21 -235 2
-320 48 -182 166 -367 333 -521 280 -258 607 -261 961 -11 72 51 1004 971
3008 2969 1222 1219 1274 1272 1342 1376 38 59 82 140 97 178 l28 70 1213
-1213 1213 -1213 0 2903 0 2902 -2902 0 -2903 0 1588 -1588z"/>
</g>
</svg>
